<svg id="visual" viewBox="0 0 900 600" width="900" height="600" xmlns="http://www.w3.org/2000/svg" xmlns:xlink="http://www.w3.org/1999/xlink" version="1.1"><rect x="0" y="0" width="900" height="600" fill="#f47504"></rect><path d="M0 396L129 371L257 395L386 397L514 400L643 370L771 376L900 437L900 601L771 601L643 601L514 601L386 601L257 601L129 601L0 601Z" fill="#739d4f"></path><path d="M0 459L129 419L257 470L386 402L514 472L643 425L771 431L900 436L900 601L771 601L643 601L514 601L386 601L257 601L129 601L0 601Z" fill="#638a40"></path><path d="M0 506L129 453L257 475L386 439L514 440L643 480L771 448L900 468L900 601L771 601L643 601L514 601L386 601L257 601L129 601L0 601Z" fill="#547831"></path><path d="M0 535L129 523L257 500L386 510L514 529L643 528L771 486L900 531L900 601L771 601L643 601L514 601L386 601L257 601L129 601L0 601Z" fill="#456622"></path><path d="M0 525L129 567L257 533L386 557L514 558L643 546L771 542L900 557L900 601L771 601L643 601L514 601L386 601L257 601L129 601L0 601Z" fill="#365513"></path></svg>