<svg enable-background="new 0 0 256 62.9" height="63" viewBox="0 0 256 62.9" width="256" xmlns="http://www.w3.org/2000/svg"><path d="m105.1 31.8-1 .9c-.3.3-.7.5-1.1.8-.9.4-1.9.6-3.1.6h-5.9c-.3 0-.6-.3-.6-.6v-20c0-.9.1-1.5.3-1.9.1-.3.3-.5.5-.6l.9-.8c.4-.4.1-1-.4-1h-7.2c-.5 0-.8.7-.4 1l.9.8c.1.1.3.3.4.6.2.4.3 1.1.3 1.9v19c0 1-.1 1.7-.3 2.2-.1.3-.3.5-.4.7l-.8.8c-.4.4-.1 1 .4 1h17.1c.3 0 .5-.2.6-.5l.9-4.4c.1-.5-.6-.9-1.1-.5z"/><path d="m144.3 9.3h-6.5c-.5 0-.8.7-.4 1l.9.8c.2.1.3.3.5.6.2.4.3 1.1.3 1.9v13.9c0 2.3-.6 4-1.9 5.2s-3.1 1.7-5.3 1.7c-2.4 0-4.3-.6-5.5-1.8s-1.8-2.9-1.8-5.2v-13.9c0-.8.1-1.5.3-1.8.1-.3.3-.5.4-.6l.8-.8c.4-.4.1-1-.4-1h-7c-.5 0-.8.7-.4 1l.8.8c.1.1.3.3.4.6.2.4.3 1.1.3 1.9v13.8c0 3.2 1.1 5.8 3.1 7.6s4.9 2.7 8.6 2.7c2.2 0 4.2-.4 5.9-1.2s3.1-2 4.1-3.6 1.4-3.5 1.4-5.6v-13.7c0-.9.1-1.5.3-1.9.1-.3.3-.5.5-.6l.9-.8c.5-.4.2-1-.3-1z"/><path d="m177.1 25.5c-.8-1-1.7-1.9-2.9-2.5-1.1-.6-2.5-1.3-4.1-2s-2.8-1.2-3.7-1.7c-.8-.4-1.5-.9-2.1-1.5-.5-.5-.7-1.2-.7-1.9 0-1.1.4-2 1.3-2.8s2.1-1.2 3.6-1.2c1.3 0 2.7.4 4 1.1 1 .5 1.8 1.2 2.4 2.1l.8 1.2c.3.5 1.1.2 1.1-.3v-4.6c0-.2-.1-.4-.3-.5l-.2-.1c-1.1-.6-2.3-1-3.6-1.3s-2.7-.5-4.1-.5c-1.6 0-3.1.3-4.5.9s-2.5 1.5-3.4 2.7c-.8 1.2-1.3 2.6-1.3 4.1 0 1.8.7 3.4 2 4.6 1.2 1.2 3.2 2.3 5.8 3.4 1.8.7 3.2 1.4 4.1 2 .9.5 1.6 1.1 1.9 1.7.4.6.6 1.2.6 2.1 0 1.2-.5 2.2-1.4 3.1-1 .9-2.3 1.3-3.8 1.3s-2.9-.4-4.3-1.1c-1.3-.7-2.3-1.7-3.1-2.9l-.7-1.1c-.3-.5-1.1-.3-1.1.3v4.9c0 .2.1.4.3.5l.2.1c1.1.7 2.4 1.2 3.8 1.6 1.5.4 3 .6 4.6.6 1.7 0 3.4-.3 4.9-1s2.8-1.6 3.7-2.8c.9-1.3 1.4-2.8 1.4-4.5 0-1.6-.4-2.9-1.2-4z"/><path d="m210.6 25.5c-.8-1-1.7-1.9-2.9-2.5-1.1-.6-2.5-1.3-4.1-2s-2.8-1.2-3.7-1.7c-.8-.4-1.5-.9-2.1-1.5-.5-.5-.7-1.2-.7-1.9 0-1.1.4-2 1.3-2.8s2.1-1.2 3.6-1.2c1.3 0 2.7.4 4 1.1 1 .5 1.8 1.2 2.4 2.1l.8 1.2c.3.5 1.1.2 1.1-.3v-4.6c0-.2-.1-.4-.3-.5l-.2-.1c-1.1-.6-2.3-1-3.6-1.3s-2.7-.5-4.1-.5c-1.6 0-3.1.3-4.5.9s-2.5 1.5-3.4 2.7c-.8 1.2-1.3 2.6-1.3 4.1 0 1.8.7 3.4 2 4.6 1.2 1.2 3.2 2.3 5.8 3.4 1.8.7 3.2 1.4 4.1 2 .9.5 1.6 1.1 1.9 1.7.4.6.6 1.2.6 2.1 0 1.2-.5 2.2-1.5 3.1s-2.3 1.3-3.8 1.3-2.9-.4-4.3-1.1c-1.3-.7-2.3-1.7-3.1-2.9l-.7-1.1c-.3-.5-1.1-.3-1.1.3v4.9c0 .2.1.4.3.5l.2.1c1.1.7 2.4 1.2 3.8 1.6 1.5.4 3 .6 4.6.6 1.7 0 3.4-.3 4.9-1s2.8-1.6 3.7-2.8c.9-1.3 1.4-2.8 1.4-4.5.2-1.6-.2-2.9-1.1-4z"/><path d="m254 15.2c-1.3-2.1-3.2-3.8-5.4-4.8-2.2-1.1-4.6-1.6-7.1-1.6-3 0-5.7.6-8 1.9-2.3 1.2-4.2 3-5.4 5.3-1.3 2.2-1.9 4.8-1.9 7.7 0 3 .7 5.6 2 7.7s3.1 3.8 5.4 4.8c2.2 1.1 4.6 1.6 7.1 1.6 3 0 5.7-.6 8-1.9 2.3-1.2 4.2-3 5.4-5.3 1.3-2.2 1.9-4.8 1.9-7.7s-.7-5.5-2-7.7zm-4 14.2c-.8 1.6-2 2.9-3.4 3.8s-3.1 1.3-4.9 1.3c-2 0-3.9-.5-5.5-1.5s-2.9-2.4-3.8-4.1c-.9-1.8-1.4-3.8-1.4-6s.4-4.2 1.2-5.9c.8-1.6 1.9-2.9 3.4-3.8 1.4-.9 3.1-1.3 4.9-1.3 2 0 3.9.5 5.5 1.5s2.9 2.4 3.8 4.1c.9 1.8 1.4 3.8 1.4 6 0 2.3-.4 4.2-1.2 5.9z"/><path d="m96.9 56.8c-.2-.4-.5-.8-.7-1.2-.3-.4-.5-.8-.7-1.2s-.5-.7-.7-1.1c-.2-.3-.4-.6-.5-.8.8-.4 1.4-.9 1.8-1.6s.5-1.5.5-2.2-.1-1.3-.4-1.8-.6-.9-1-1.3c-.4-.3-.9-.6-1.5-.8s-1.1-.2-1.7-.2h-3.4v14.1h1.4v-5.7h2.1.4.4c.1.2.3.5.5.8s.4.7.6 1 .5.7.7 1.1.5.7.7 1.1c.2.3.4.7.6.9.2.3.3.5.4.7h1.6c-.1-.2-.3-.4-.5-.7-.1-.4-.3-.7-.6-1.1zm-3.3-5.4c-.4.2-.9.3-1.6.3h-2v-5.9h2.1c.5 0 1 .1 1.4.2.4.2.7.4 1 .7s.5.6.6.9.2.7.2 1 0 .6-.1 1c-.1.3-.3.7-.5 1-.3.3-.6.6-1.1.8z"/><path d="m121.6 52.2h6.7v-1.3h-6.7v-5.1h7.5v-1.3h-8.9v14.1h9.2v-1.3h-7.8z"/><path d="m160.6 54.2c-.4-.9-.8-1.9-1.2-2.9s-.8-2-1.2-2.9-.7-1.8-1.1-2.6c-.3-.8-.6-1.4-.8-1.9-.2.5-.5 1.1-.8 1.9s-.7 1.6-1.1 2.6c-.4.9-.8 1.9-1.2 2.9s-.8 2-1.2 2.9-.7 1.8-1.1 2.6c-.3.8-.6 1.4-.8 1.9h1.3c.3-.6.6-1.3.9-2.2.4-.9.7-1.8 1.1-2.8h5.4c.4 1 .7 1.9 1.1 2.8s.7 1.6.9 2.2h1.4c-.2-.5-.5-1.1-.8-1.9-.1-.9-.5-1.7-.8-2.6zm-6.5-1.8c.4-1 .8-1.9 1.1-2.8.4-.9.7-1.6.9-2.3 0-.1.1-.1.1-.3 0-.1.1-.2.1-.3 0 .1.1.2.1.3s.1.2.1.3c.3.6.6 1.4.9 2.3.4.9.7 1.8 1.1 2.8z"/><path d="m185.8 44.5h-1.4v14.1h8.8v-1.3h-7.4z"/><path d="m212.3 45.8h3.7v12.8h1.4v-12.8h3.7v-1.3h-8.8z"/><path d="m251.5 46c-.3.6-.7 1.2-1.1 1.9s-.8 1.4-1.1 2.1c-.4.7-.7 1.3-1.1 1.9l-.2.6-.2-.6c-.3-.6-.7-1.2-1.1-1.9s-.8-1.4-1.2-2.1-.8-1.3-1.1-1.9-.6-1.1-.9-1.5h-1.5c.2.3.4.7.7 1.2s.6 1 .9 1.6.7 1.2 1 1.8c.4.6.7 1.2 1 1.8s.6 1.1.9 1.6.5.9.7 1.2v4.9h1.4v-4.9l5.2-9.2h-1.5c-.2.4-.5.9-.8 1.5z"/><path d="m77.4 9s.1 0 0 0c.7 0 1-.8.4-1.2 0 0-.1 0-.1-.1-.1-.1-.2-.1-.4-.2s-.3-.4-.1-.6c.6-.7-.1-1.7-1-1.4-.2.1-.5-.1-.5-.3 0-.1 0-.3-.1-.4-.1-.7-1.1-.7-1.3 0-.1.3-.2.6-.3.9-.1-.5-.3-.9-.6-1.3-1.2-1.7-3.7-2-5.7-.7-.1.1-.3.1-.4 0-1.5-1.2-3.7-1.3-5.3-.2-1.6 1.2-2.2 3.3-1.5 5.1.1.1 0 .3-.1.4-1.8 1.5-2.3 4-1.1 5.7.3.4.6.6.9.9 0 0-.1 0-.1-.1-1.6-.5-3.2-.1-3.6.7-.1.3-.1.5 0 .8s.5.3.6 0c.1-.2.3-.4.5-.5.4-.3.9-.4 1.3-.3.3 0 .4.5.2.6l-1.9 1.3c-.2.1-.4.1-.5-.1l-.4-.6c-.2-.3-.7-.4-1.1-.1-.3.2-.3.7 0 1l.3.4c-.7-.5-1.4-.6-1.8-.3s-.5.9-.3 1.7c0-.1.1-.1.1-.2.3-.2.8-.2 1.1.1l-9.5 6.9c1.4-3.6 3.5-5.6-1.1-5.9 1.7-1 1.7-2.4 3.9-3.7 2.1-1.2 3.1-1.4 2.3-2-6.6-4.6-9.4 4.7-8.7-.5 0 0 4.9-2.7 4.3-3.2-.4-.4-3.2.4-3.2-.7.1-.8 2.4-3.1 1.1-4.2-4.9-4-3.5-6.6-4.5-6.8 0 0 0 0-.1 0 0 0 0 0-.1 0 0 0 0 0-.1 0 0 0 0 0-.1 0-1 .3.4 2.9-4.5 6.8-1.3 1 1 3.4 1.1 4.2 0 1.1-2.7.4-3.2.7-.6.5 4.3 3.2 4.3 3.2.8 5.3-2.1-4.1-8.7.5-.8.6.2.7 2.3 2 2.2 1.3 2.2 2.7 3.9 3.7-4.6.3-2.5 2.3-1.1 5.9l-9.5-6.9c.3-.3.7-.4 1.1-.1.1 0 .1.1.1.2.2-.8.1-1.4-.3-1.7s-1.1-.1-1.8.3l.3-.4c.2-.3.2-.7 0-1-.3-.3-.8-.2-1.1.1l-.4.6c-.1.2-.3.2-.5.1l-1.8-1.2c-.3-.2-.2-.6.2-.6.5 0 .9.1 1.3.3.2.1.3.3.5.5s.5.2.6 0c.1-.3.1-.6 0-.8-.4-.9-2-1.2-3.6-.7 0 0-.1 0-.1.1.4-.2.7-.5.9-.9 1.2-1.7.7-4.1-1.1-5.7-.1-.1-.2-.3-.1-.4.7-1.8.1-3.9-1.5-5.1s-3.8-1.1-5.3.2c-.1.1-.3.1-.4 0-2-1.2-4.5-.9-5.7.7-.4.4-.5.9-.6 1.3-.2-.3-.3-.6-.4-.9-.2-.7-1.1-.7-1.3 0 0 .1 0 .3-.1.4 0 .2-.3.4-.5.3-.8-.3-1.5.7-.9 1.4.2.3.1.5-.1.6-.1.1-.3.1-.4.2 0 0-.1 0-.1.1-.6.3-.3 1.2.4 1.1.3 0 .5.4.3.6-.1.2-.2.3-.3.4-1.2 1.7-.7 4.1 1.1 5.7.1.1.2.3.1.4-.7 1.8-.1 3.9 1.5 5.1 1.6 1.1 3.8 1 5.3-.2.1-.1.3-.1.4 0 2 1.2 4.5.9 5.7-.7.3-.4.4-.8.5-1.2v.1c.1 1.6.9 3.1 1.8 3.2.3 0 .5-.1.8-.2.2-.2.1-.5-.2-.6-.2-.1-.4-.2-.6-.3-.4-.3-.6-.7-.7-1.1-.1-.3.3-.6.6-.4l1.9 1.3c.2.1.2.3.1.5l-.4.6c-.2.3-.2.7 0 1 .3.3.8.2 1.1-.1l.3-.5c-.2.8-.2 1.5.3 1.8.4.3 1 .2 1.7-.2-.1 0-.1 0-.2-.1-.3-.2-.4-.7-.2-1.1l12.4 9.1c0 1.3-.4 2.5-.8 3.5l-19.8 14.5c-.2.1-.4.1-.5-.1l-.1-.1c-.1-.2-.3-.2-.5-.1l-.1.1c-.2.1-.4.1-.5-.1l-3.6-4.9c-.1-.2-.3-.2-.5-.1l-2.8 2.1c-.2.1-.2.3-.1.5l1 1.3c.1.2.3.2.5.1l1.6-1.2c.2-.1.4-.1.5.1l.5.7c.1.2.1.4-.1.5l-1.6 1.1c-.1.1-.2.3-.1.5l1.1 1.5c.1.2.1.4-.1.5l-.6.5c-.2.1-.4.1-.5-.1l-1.1-1.5c-.1-.2-.3-.2-.5-.1l-1.6 1.2c-.2.1-.4.1-.5-.1l-.5-.7c-.1-.2-.1-.4.1-.5l1.6-1.2c.2-.1.2-.3.1-.5l-1-1.3c-.1-.1-.4-.2-.5-.1l-2.8 2.1c-.2.1-.2.3-.1.5l3.6 4.9c.1.2.1.4-.1.5l-.1.1c-.2.1-.2.3-.1.5l.1.2c.1.1.1.3 0 .4-.5.5-.5 1.2-.1 1.7l.4.6c.5.6 1.4.8 2 .3l25.7-18.6c.4.4 1.1.6 2.4.7-1.5 1-1.5 2.3-3.6 3.5s-3.1 1.4-2.3 2c6.6 4.6 9.4-4.9 8.7.5 0 0-4.9 2.7-4.3 3.2.4.4 3.2-.4 3.2.7-.1.8-2.4 3.1-1.1 4.2 4.9 4 3.5 6.6 4.5 6.8h.1.1.1.1c1-.3-.4-2.9 4.5-6.8 1.3-1-1-3.4-1.1-4.2 0-1.1 2.7-.4 3.2-.7.6-.5-4.3-3.2-4.3-3.2-.6-5.2 2.1 4.1 8.7-.5.8-.6-.2-.7-2.3-2-2.1-1.2-2.1-2.5-3.6-3.5 1.3-.1 2-.4 2.4-.7l25.7 18.6c.6.5 1.5.3 2-.3l.4-.6c.4-.5.3-1.3-.1-1.7-.1-.1-.1-.3 0-.4l.1-.2c.1-.2.1-.4-.1-.5l-.1-.1c-.2-.1-.2-.3-.1-.5l3.6-4.9c.1-.2.1-.4-.1-.5l-2.8-2.1c-.2-.1-.4-.1-.5.1l-1 1.3c-.1.2-.1.4.1.5l1.6 1.2c.2.1.2.3.1.5l-.5.7c-.1.2-.3.2-.5.1l-1.6-1.2c-.2-.1-.4-.1-.5.1l-1.1 1.5c-.1.2-.3.2-.5.1l-.7-.5c-.2-.1-.2-.3-.1-.5l1.1-1.5c.1-.2.1-.4-.1-.5l-1.6-1.2c-.2-.1-.2-.3-.1-.5l.5-.7c.1-.2.3-.2.5-.1l1.6 1.2c.2.1.4.1.5-.1l1-1.3c.1-.2.1-.4-.1-.5l-2.8-2.1c-.2-.1-.4-.1-.5.1l-3.6 4.9c-.1.2-.3.2-.5.1l-.1-.1c-.2-.1-.4-.1-.5.1l-.3.2c-.1.2-.3.2-.5.1l-19.8-14.4c-.4-1-.7-2.2-.8-3.5l12.6-9.2c.2.3.1.8-.2 1.1-.1 0-.1.1-.2.1.7.4 1.3.5 1.7.2s.5-1 .3-1.8l.3.5c.2.3.7.4 1 .1.3-.2.3-.7 0-1l-.4-.6c-.1-.2-.1-.4.1-.5l1.9-1.3c.3-.2.6 0 .6.4-.1.5-.4.9-.7 1.1-.2.1-.4.2-.6.3-.3.1-.4.4-.2.6s.5.3.8.2c.9-.1 1.7-1.6 1.8-3.2 0-.1 0-.1 0-.1.1.4.3.8.5 1.2 1.2 1.7 3.7 2 5.7.7.1-.1.3-.1.4 0 1.5 1.2 3.7 1.3 5.3.2 1.6-1.2 2.2-3.3 1.5-5.1-.1-.1 0-.3.1-.4 1.8-1.5 2.3-4 1.1-5.7-.1-.1-.2-.3-.3-.4-.3-.2-.1-.6.2-.6zm-65.4-4.2c.9-.8 1.8-1.1 2.3-.7.3.2.4.5.4.9 0 .2.2.4.5.3.4-.1.8-.1 1 .1.5.4.5 1.4 0 2.4-.1.2-.2.3-.4.2-.9-.3-1.7-.3-2.5-.1-.3.1-.5-.1-.5-.3 0-.8-.3-1.6-.8-2.3-.2-.2-.1-.4 0-.5zm3 4.8c-.9 1-2 1.4-2.6 1-.1-.1-.2-.2-.2-.3-.1-.1-.1-.3 0-.4.6-.8 1.6-1.1 2.6-1 .3.1.4.5.2.7zm-4.3-3.1c.1-.3.5-.2.6 0 .5.9.5 2-.1 2.8-.1.1-.2.2-.3.1-.1 0-.2-.1-.3-.1-.6-.5-.5-1.6.1-2.8zm-5.1-1.3c.8-1.1 2.4-1.3 3.9-.6.2.1.3.3.2.5-.9 1.6-.6 3.6.6 4.9-.1.1-.3.1-.4.1-.6-1-.9-2.4-.8-4 0-.4-.5-.5-.7-.2-.3.5-.6 1.1-.8 1.7-.1.3-.2.6-.2.9 0 .2-.3.3-.5.3-.3-.2-.6-.2-.9-.3-.1 0-.2-.1-.3-.2-.7-1-.8-2.2-.1-3.1zm1.8 14.8c-.9.8-1.8 1.1-2.3.7-.3-.2-.4-.5-.4-.9 0-.2-.2-.4-.5-.3-.4.1-.8.1-1-.1-.5-.4-.5-1.4 0-2.4.1-.2.3-.3.4-.2.9.2 1.8.2 2.6 0 .2-.1.4.1.4.3.1.8.4 1.6.9 2.4.1.1.1.3-.1.5zm-3-4.8c.9-1 2-1.4 2.6-1 .1.1.2.2.2.3.1.1.1.3 0 .4-.6.8-1.6 1.1-2.6 1-.2-.2-.4-.5-.2-.7zm3.3-1.6c-1.7-.7-3.6-.4-4.9 1-.1.1-.4.1-.5 0-1.2-1.1-1.5-2.8-.7-3.9.6-.9 1.8-1.2 3-.9.1 0 .2.1.2.2.1.3.3.6.5.9.1.2.1.4-.1.5s-.5.3-.7.5c-.5.4-1 .8-1.4 1.3-.2.3.1.7.4.6 1.5-.7 3-.8 4.2-.6zm1 4.7c-.1.3-.5.2-.6 0-.5-.9-.5-2 .1-2.8.1-.1.2-.2.3-.1.1 0 .2.1.3.1.7.4.6 1.6-.1 2.8zm5.2 1.2c-.8 1.1-2.5 1.3-3.9.6-.2-.1-.3-.3-.2-.5.8-1.6.6-3.6-.6-4.9.1-.1.3-.1.4-.1.6 1.1.9 2.5.8 4.1 0 .4.5.5.7.2.3-.5.6-1.1.8-1.7.1-.3.2-.6.2-.8s.3-.3.5-.3c.3.1.7.2 1 .2.1 0 .2.1.3.2.5.9.6 2.2 0 3zm.9-4.5c-.1 0-.2-.1-.2-.2-.1-.3-.3-.6-.5-.9-.1-.2-.1-.4.1-.5s.5-.3.7-.5c.5-.4 1-.8 1.4-1.3.2-.3-.1-.7-.4-.6-1.5.6-2.9.7-4.1.5 0-.1 0-.3 0-.4 1.7.7 3.6.4 4.9-1 .1-.1.4-.1.5 0 1.2 1.1 1.5 2.8.7 3.9-.7.9-1.9 1.3-3.1 1zm25.5 15.1.6 8c0 .4-.3.8-.8.8h-2.1c-.4 0-.8-.3-.8-.8l.6-8c-1-.5-1.7-1.5-1.7-2.6 0-1.6 1.3-2.9 2.9-2.9s2.9 1.3 2.9 2.9c.1 1.1-.6 2.1-1.6 2.6zm28.3-25.5c1.5-.7 3.1-.5 3.9.6.6.9.6 2.1-.1 3.2-.1.1-.2.1-.3.2-.3 0-.6.1-1 .2-.2.1-.4-.1-.5-.3-.1-.3-.1-.5-.2-.8-.2-.6-.5-1.2-.8-1.8-.2-.3-.7-.1-.7.2.1 1.6-.2 3-.8 4.1-.1 0-.3-.1-.4-.1 1.2-1.3 1.5-3.3.6-4.9.1-.3.2-.5.3-.6zm-1.8 1.9c.1-.3.5-.3.6 0 .6 1.2.7 2.4.1 2.8-.1.1-.2.1-.3.1s-.3 0-.3-.1c-.6-.8-.6-1.9-.1-2.8zm-4.8-1.1c.3-.2.6-.2 1-.1.2.1.5-.1.5-.3 0-.4.1-.7.4-.9.5-.4 1.4-.1 2.3.7.1.1.2.3 0 .5-.5.7-.8 1.5-.9 2.4 0 .2-.2.4-.4.3-.8-.2-1.7-.2-2.5.1-.2.1-.4 0-.4-.2-.6-1.1-.6-2.1 0-2.5zm4 4.9c-.1.1-.1.2-.2.3-.6.4-1.7 0-2.6-1-.3-.2-.2-.6.1-.6 1-.1 2 .2 2.6 1 .1.1.1.2.1.3zm-2.7 4.7c-1.2.3-2.4 0-3-.9-.8-1.1-.5-2.8.7-3.9.1-.1.4-.1.5 0 1.3 1.3 3.2 1.7 4.9 1v.4c-1.2.2-2.7.1-4.1-.5-.3-.1-.6.3-.4.6.4.5.9.9 1.4 1.3.2.2.5.3.7.5.2.1.2.3.1.5-.2.3-.4.6-.5.9-.1 0-.1 0-.3.1zm4.9 5.1c-1.5.7-3.1.5-3.9-.6-.6-.9-.6-2.1.1-3.2.1-.1.2-.1.3-.2.3 0 .6-.1 1-.2.2-.1.4.1.5.3.1.3.1.5.2.8.2.6.5 1.2.8 1.7.2.3.7.1.7-.2-.1-1.6.2-3 .8-4.1.1 0 .3.1.4.1-1.2 1.3-1.5 3.3-.6 4.9-.1.4-.1.6-.3.7zm1.8-1.8c-.1.3-.5.3-.6 0-.6-1.2-.7-2.4-.1-2.8.1-.1.2-.1.3-.1s.3 0 .3.1c.6.8.6 1.8.1 2.8zm4.9 1c-.3.2-.6.2-1 .1-.2-.1-.5.1-.5.3 0 .4-.1.7-.4.9-.5.4-1.4.1-2.3-.7-.1-.1-.2-.3 0-.5.5-.7.8-1.5.9-2.4 0-.2.2-.4.4-.3.8.2 1.7.2 2.5-.1.2-.1.4 0 .4.2.5 1.2.5 2.2 0 2.5zm-4-4.9c.1-.1.1-.2.2-.3.6-.4 1.7 0 2.6 1 .2.2.1.6-.2.6-1 .1-2-.2-2.6-1-.1 0-.1-.2 0-.3zm4.9.2c-.1.1-.4.1-.5 0-1.3-1.3-3.2-1.7-4.9-1 0-.1 0-.3 0-.4 1.2-.2 2.7-.1 4.1.5.3.1.6-.3.4-.6-.4-.5-.9-.9-1.4-1.3-.2-.2-.5-.3-.7-.5-.2-.1-.2-.3-.1-.5.2-.3.4-.6.5-.9 0-.1.1-.2.2-.2 1.2-.3 2.4 0 3 .9.9 1.2.6 2.8-.6 4z"/></svg>